# xmcd CD database file
#
# Track frame offsets:
#	150
#	11718
#	32796
#	52263
#	79138
#	104202
#	127937
#	151368
#	172173
#	191469
#	217905
#	233679
#
# Disc length: 3237 seconds
#
# Revision: 0
# Processed by: cddbd v1.5PL3 Copyright (c) Steve Scherf et al.
# Submitted via: CDex 1.51
#
DISCID=a30ca30c
DTITLE=Cordes Sensibles - Invitation
DYEAR=2003
DGENRE=Jazz
TTITLE0=Invitation
TTITLE1=Remenber Me 
TTITLE2=Along Came Betty
TTITLE3=Sem Fantasia
TTITLE4=La Safranée
TTITLE5=Good By Pork Pie Hat
TTITLE6=Casa Forte 
TTITLE7=Beatriz
TTITLE8=Never Said
TTITLE9=Nur 
TTITLE10=Julia
TTITLE11=Invitation "Suddenly You Where There"
EXTD=YEAR: 2003
EXTT0=
EXTT1=
EXTT2=
EXTT3=
EXTT4=
EXTT5=
EXTT6=
EXTT7=
EXTT8=
EXTT9=
EXTT10=
EXTT11=
PLAYORDER=
